<svg xmlns="http://www.w3.org/2000/svg" xmlns:xlink="http://www.w3.org/1999/xlink" viewBox="0 0 512 512">
  <defs>
    <linearGradient id="iL" x1="184.03" y1="374.96" x2="261.79" y2="374.96" gradientUnits="userSpaceOnUse">
      <stop offset="0" stop-color="#f7d36c"/><stop offset="1" stop-color="#cc9432"/>
    </linearGradient>
    <linearGradient id="iL2" x1="208.83" y1="348.26" x2="285.11" y2="348.26" xlink:href="#iL"/>
    <linearGradient id="iR" x1="58.12" y1="376.62" x2="143.66" y2="376.62"
      gradientTransform="translate(469.13) rotate(-180) scale(1 -1)" gradientUnits="userSpaceOnUse">
      <stop offset="0" stop-color="#f7d36c"/><stop offset="1" stop-color="#cc9432"/>
    </linearGradient>
    <linearGradient id="iR2" x1="82.92" y1="363.27" x2="159.2" y2="363.27" xlink:href="#iR"/>
  </defs>
  <!-- Fond carré avec coins arrondis -->
  <rect width="512" height="512" fill="#f0f7f5" rx="80"/>
  <!-- Artwork logo centré — viewBox "150 270 280 230" → zone 56,91 → 456,421 -->
  <svg x="56" y="91" width="400" height="330" viewBox="150 270 280 230" xmlns:xlink="http://www.w3.org/1999/xlink">
    <!-- Chemin sinueux (jade) -->
    <path fill="#00917c" d="M302.35,304.33c-.49-.09-7.37,4.07-9.01,6.69-5.5,7.11.09,11.67,6.66,14.41,7.63,3.37,14.33,4.98,20.9,6.36,10.62,2.34,26.89,7.03,31.8,17.94,4.47,14.15-13.72,32.28-26.45,46.57-5.85,6.25-11.42,11.3-14.51,19.34-9.7,25.08,7.17,42.79,28.49,52.98,2.3,1.32,13.02,4.38,7.93,4.77-20.33.91-46.13-3.05-64.86-9.16-3.97-1.14-7.75-3.12-9.59-6.97-2.03-3.78-4.2-9.37-4.67-15.85-.84-8.85,2.23-17.59,6.81-24.65,6.11-9.68,15.54-17.78,24.63-24.84,9.65-7.61,21.23-13.69,28.38-23.15,5.8-7.08,8.38-16.26,1.2-23.44-3.28-3.4-7.9-5.06-12.95-6.45-5.79-1.58-11.66-3.01-17.04-5.08-7.38-2.8-17.5-7.22-14.6-16.63,1.63-6.48,12.2-10.89,16.87-12.85h-.01Z"/>
    <path fill="#00917c" d="M262.22,455.18c.21-1.03-.89-2.56-1.28-3.87-1.5-3.68-2.37-7.89-2.4-11.93.02-11.73,6.32-21.9,13.92-29.33,15.75-14.91,30.55-22.82,47.64-38.47,4.71-4.65,11.46-9.6,10.78-16.76-1.87-10.27-11.93-14.27-21.16-16.81-11.4-3.91-29.28-7.11-25.92-22.66.21-1.13.53-2.68-.44-.58-6.33,13.96,7.17,20.52,19.1,23.49,6.8,1.94,13.95,2.92,19.65,7.41,3.4,2.67,6.38,7.44,5.43,11.82-.96,4.88-11.71,13.48-21.56,20.04-15.24,10.86-31.97,18.27-43.94,32.61-8.71,9.69-15.17,24.39-8.29,36.8,1.45,2.61,3.4,4.82,5.18,6.35,1.71,1.48,3.02,2.27,3.27,1.91l.02-.03Z"/>
    <path fill="#00917c" d="M319.55,347.03c.86,1.06,2.28,3.15,2.18,5.74-.15,3.6-3.22,6.18-4.95,7.52-9.76,7.56-39.81,24.2-52.22,31.85,0,0-16.48,10.15-21.36,22.35-1.9,4.74-1.19,8.9-1.19,8.9.48,2.81,1.71,4.91,2.57,6.13.02-2.4.31-5.91,1.68-9.85,2.78-7.98,8.3-12.75,12.37-16.06,12.3-10.01,23.61-16.66,25.91-18,0,0,35.93-20.95,38.81-30.46.79-2.61,0-4.55,0-4.55-.85-2.09-2.84-3.14-3.8-3.56Z"/>
    <!-- Livre gauche -->
    <path fill="url(#iL)" d="M184.03,296c.54,44.64,1.07,89.27,1.61,133.91,8.16,1.8,16.79,4.07,25.8,6.91,19.46,6.15,36.28,13.65,50.35,21.11-2.05-.96-6.69-3.49-10.09-8.85-2.49-3.93-3.24-7.71-3.5-9.88-7.85-3.95-16.17-7.89-24.98-11.75-8.11-3.55-15.99-6.76-23.6-9.66-.19-41.93-.39-83.86-.58-125.79-5,1.33-10,2.67-15,4Z"/>
    <path fill="url(#iL2)" d="M208.83,411.42c9.51,4.09,19.01,8.17,28.52,12.26-.05-1.33-.03-2.8.12-4.4.23-2.56.71-4.79,1.23-6.63-2.12-.8-4.38-1.77-6.74-2.95-4.1-2.05-7.57-4.28-10.44-6.39.16-38.44.32-76.89.48-115.33,4,.41,8.18,1.02,12.5,1.87,21.2,4.19,38.17,12.81,50.61,21.02-5.62-7.57-19.36-23.84-43.07-32.5-13.15-4.8-24.95-5.65-33.03-5.52-.06,46.19-.12,92.38-.18,138.57Z"/>
    <!-- Livre droite -->
    <path fill="url(#iR)" d="M411.02,296.83c-.15,44.01-.3,88.02-.46,132.03-8.63,2.47-17.64,5.38-26.95,8.79-20.46,7.5-38.48,16.04-54.05,24.58-.66-.37-1.67-1.05-2.6-2.18-.79-.97-1.24-1.92-1.49-2.58,8.32-7.88,15.99-13.24,21.55-16.72,7.86-4.91,14.32-7.73,24.8-12.48,8.23-3.73,16.13-6.92,23.6-9.66l.68-127.6c1.81.19,4.02.59,6.45,1.4,3.72,1.24,6.54,3,8.46,4.41Z"/>
    <path fill="url(#iR2)" d="M386.21,412.24c-11.22,3.98-25.12,10.1-39.78,19.69-10.74,7.02-19.49,14.34-26.44,20.95-.77-.43-1.81-1.12-2.82-2.22-.75-.82-1.26-1.62-1.61-2.27,1.23-1.21,3.25-3.17,5.76-5.56,28.03-26.73,39.74-33.04,45.88-35.95,2.81-1.33,5.11-2.26,6.32-2.74-.16-38.44-.32-76.89-.48-115.33-4,.41-8.18,1.02-12.5,1.87-21.2,4.19-38.17,12.81-50.61,21.02,5.62-7.57,19.36-23.84,43.07-32.5,13.15-4.8,24.95-5.65,33.03-5.52.06,46.19.12,92.38.18,138.57Z"/>
  </svg>
</svg>
